<svg id="visual" viewBox="0 0 960 540" width="960" height="540" xmlns="http://www.w3.org/2000/svg" xmlns:xlink="http://www.w3.org/1999/xlink" version="1.1"><rect x="0" y="0" width="960" height="540" fill="#fef7ff"></rect><g transform="translate(190.99754871629864 524.4575210177873)"><path d="M226.7 -356.7C299.5 -350.7 368 -301.4 368.9 -234.7C369.7 -168 303 -84 320 9.8C337.1 103.7 437.9 207.3 435.8 272C433.8 336.7 328.9 362.3 239.1 387.7C149.3 413 74.7 438 -34.2 497.2C-143 556.3 -286 649.7 -422.4 651.3C-558.8 652.9 -688.6 562.7 -759.6 438.8C-830.6 315 -842.8 157.5 -761.8 46.8C-680.9 -64 -506.7 -128 -442 -262.8C-377.4 -397.6 -422.2 -603.2 -366.8 -619.2C-311.3 -635.2 -155.7 -461.6 -39.3 -393.5C77 -325.4 154 -362.7 226.7 -356.7" fill="#762cef"></path></g></svg>