<svg id="visual" viewBox="0 0 960 540" width="960" height="540" xmlns="http://www.w3.org/2000/svg" xmlns:xlink="http://www.w3.org/1999/xlink" version="1.1"><rect x="0" y="0" width="960" height="540" fill="#b694f2"></rect><path d="M340 0L330.2 22.5C320.3 45 300.7 90 286.8 135C273 180 265 225 264.2 270C263.3 315 269.7 360 268.8 405C268 450 260 495 256 517.5L252 540L0 540L0 517.5C0 495 0 450 0 405C0 360 0 315 0 270C0 225 0 180 0 135C0 90 0 45 0 22.5L0 0Z" fill="#762cef"></path><path d="M224 0L212 22.5C200 45 176 90 164.5 135C153 180 154 225 167.2 270C180.3 315 205.7 360 216.8 405C228 450 225 495 223.5 517.5L222 540L0 540L0 517.5C0 495 0 450 0 405C0 360 0 315 0 270C0 225 0 180 0 135C0 90 0 45 0 22.5L0 0Z" fill="#fef7ff"></path></svg>