<svg id="visual" viewBox="0 0 2440 240" width="2440" height="240" xmlns="http://www.w3.org/2000/svg" xmlns:xlink="http://www.w3.org/1999/xlink" version="1.1"><path d="M0 140L58.2 135.7C116.3 131.3 232.7 122.7 348.8 132.7C465 142.7 581 171.3 697.2 190.5C813.3 209.7 929.7 219.3 1045.8 222.3C1162 225.3 1278 221.7 1394.2 206.3C1510.3 191 1626.7 164 1742.8 146.7C1859 129.3 1975 121.7 2091.2 122.2C2207.3 122.7 2323.7 131.3 2381.8 135.7L2440 140L2440 241L2381.8 241C2323.7 241 2207.3 241 2091.2 241C1975 241 1859 241 1742.8 241C1626.7 241 1510.3 241 1394.2 241C1278 241 1162 241 1045.8 241C929.7 241 813.3 241 697.2 241C581 241 465 241 348.8 241C232.7 241 116.3 241 58.2 241L0 241Z" fill="#762cef" stroke-linecap="round" stroke-linejoin="miter"></path></svg>