<svg id="visual" viewBox="0 0 2440 300" width="2440" height="300" xmlns="http://www.w3.org/2000/svg" xmlns:xlink="http://www.w3.org/1999/xlink" version="1.1"><path d="M0 232L101.7 199.7C203.3 167.3 406.7 102.7 610 66.5C813.3 30.3 1016.7 22.7 1220 49C1423.3 75.3 1626.7 135.7 1830 179C2033.3 222.3 2236.7 248.7 2338.3 261.8L2440 275L2440 301L2338.3 301C2236.7 301 2033.3 301 1830 301C1626.7 301 1423.3 301 1220 301C1016.7 301 813.3 301 610 301C406.7 301 203.3 301 101.7 301L0 301Z" fill="#b694f2" stroke-linecap="round" stroke-linejoin="miter"></path></svg>