<svg id="visual" viewBox="0 0 2440 240" width="2440" height="240" xmlns="http://www.w3.org/2000/svg" xmlns:xlink="http://www.w3.org/1999/xlink" version="1.1"><path d="M0 22L67.8 20.7C135.7 19.3 271.3 16.7 406.8 25.7C542.3 34.7 677.7 55.3 813.2 69.7C948.7 84 1084.3 92 1220 91.7C1355.7 91.3 1491.3 82.7 1626.8 66.2C1762.3 49.7 1897.7 25.3 2033.2 25.5C2168.7 25.7 2304.3 50.3 2372.2 62.7L2440 75L2440 241L2372.2 241C2304.3 241 2168.7 241 2033.2 241C1897.7 241 1762.3 241 1626.8 241C1491.3 241 1355.7 241 1220 241C1084.3 241 948.7 241 813.2 241C677.7 241 542.3 241 406.8 241C271.3 241 135.7 241 67.8 241L0 241Z" fill="#ddccfc" stroke-linecap="round" stroke-linejoin="miter"></path></svg>